<?xml version="1.0" encoding="UTF-8"?>
<!DOCTYPE svg PUBLIC "-//W3C//DTD SVG 1.1//EN" "http://www.w3.org/Graphics/SVG/1.1/DTD/svg11.dtd">
<!-- Creator: CorelDRAW -->
<svg xmlns="http://www.w3.org/2000/svg" xml:space="preserve" width="150px" height="43px" style="shape-rendering:geometricPrecision; text-rendering:geometricPrecision; image-rendering:optimizeQuality; fill-rule:evenodd; clip-rule:evenodd"
viewBox="0 0 19.3762 5.36014"
 xmlns:xlink="http://www.w3.org/1999/xlink">
 <defs>
  <style type="text/css">
   <![CDATA[
    .fil0 {fill:#444444;fill-rule:nonzero}
   ]]>
  </style>
 </defs>
 <g id="Слой_x0020_1">
  <metadata id="CorelCorpID_0Corel-Layer"/>
  <path class="fil0" d="M0.0277321 5.31909l0.400813 -1.29621 0.172754 0 0.400821 1.29621 -0.177888 0 -0.0866633 -0.283074 0 0 -0.46011 0 0 0 -0.0869495 0.283074 -0.162777 0zm0.290494 -0.413352l0 0 0.381714 0 0 0 -0.195563 -0.624869 0 0 -0.186151 0.624869zm0.196983 -1.01741l0 0m0.418489 1.43076l0 0m-0.933618 -1.33726l0 0m1.97722 1.33726l0 -1.29621 0.315009 0c0.182445,0 0.315291,0.0521675 0.398252,0.156216 0.0835224,0.10348 0.12543,0.267395 0.12543,0.491744 0,0.192708 -0.0390568,0.348925 -0.116881,0.468653 -0.07811,0.119728 -0.210674,0.179594 -0.39768,0.179594l-0.324131 0zm0.170472 -0.130278l0.124579 0c0.12914,0 0.223498,-0.0364883 0.283081,-0.109465 0.0601521,-0.0729766 0.0900832,-0.214372 0.0900832,-0.424184 0,-0.175888 -0.0267975,-0.303597 -0.0801062,-0.382562 -0.0535913,-0.0795338 -0.147953,-0.119446 -0.283078,-0.119446l-0.13456 0 0 1.03566zm0.196135 -1.30048l0 0m-0.49603 0.0934995l0 0m2.36891 1.06416l0 0 0.320711 -1.02311 0.159357 0 -0.400817 1.29621 -0.172754 0 -0.400813 -1.29621 0.177884 0 0.316432 1.02311zm1.49716 0.273097l0 -1.29621 0.691593 0 0 0.130274 -0.521118 0 0 0.441859 0.470088 0 0 0.130278 -0.470088 0 0 0.46352 0.533659 0 0 0.130278 -0.704135 0zm0.359195 -1.43076l0 0m0.0761139 1.43076l0 0m-0.605785 -1.33726l0 0m1.97238 1.33726l0 -1.29621 0.355772 0c0.149094,0 0.255712,0.0282212 0.319852,0.0843774 0.0641443,0.055591 0.0960716,0.124293 0.0960716,0.205537 0,0.0963542 -0.02708,0.179022 -0.0809575,0.24801 -0.0535985,0.068988 -0.112892,0.118873 -0.177891,0.149663l0.375733 0.608621 -0.20041 0 -0.348077 -0.553603 -0.169617 0 0 0.553603 -0.170476 0zm0.170476 -0.68388l0.238036 0c0.0501714,-0.0210953 0.096068,-0.0570148 0.13769,-0.107755 0.0419079,-0.0513126 0.062717,-0.109469 0.062717,-0.17475 0,-0.0638545 -0.0233776,-0.113171 -0.0701255,-0.147663 -0.0467552,-0.0344958 -0.124579,-0.051885 -0.23291,-0.051885l-0.135407 0 0 0.482053zm0.221216 -0.74688l0 0m0.0299311 1.43076l0 0m-0.546201 -1.33726l0 0m1.88799 0.041053l0.945309 0 0 0.130274 -0.387416 0 0 1.16593 -0.170476 0 0 -1.16593 -0.387416 0 0 -0.130274zm0.472652 -0.134552l0 0m0 1.43076l0 0m-0.512847 -1.33726l0 0m1.98891 1.33726l0 -0.130278 0.286501 0 0 -1.03566 -0.286501 0 0 -0.130274 0.743474 0 0 0.130274 -0.286498 0 0 1.03566 0.286498 0 0 0.130278 -0.743474 0zm0.371737 -1.43076l0 0m0.0467515 1.43076l0 0m-0.559602 -1.33726l0 0m1.97894 1.15111c0.122579,0.0647131 0.243452,0.096923 0.362615,0.096923 0.0721216,0 0.132846,-0.0182441 0.181876,-0.055015 0.0490339,-0.0373469 0.073549,-0.088942 0.073549,-0.154793 0,-0.0356333 -0.010832,-0.0729802 -0.0324997,-0.112602 -0.0210953,-0.0396256 -0.0672744,-0.07982 -0.137976,-0.121155l-0.236326 -0.1394c-0.0584385,-0.0347784 -0.106049,-0.0786788 -0.142823,-0.131988 -0.0367745,-0.0541637 -0.0550186,-0.115453 -0.0550186,-0.183869 0,-0.0935031 0.0316447,-0.175316 0.095213,-0.244872 0.0635756,-0.0695603 0.171044,-0.104339 0.322421,-0.104339 0.0940755,0 0.182163,0.0131143 0.263982,0.0393394l0 0.147667c-0.0823885,-0.037912 -0.172758,-0.0567286 -0.271394,-0.0567286 -0.0769689,0 -0.136266,0.0196715 -0.177888,0.0592935 -0.0413319,0.0396256 -0.0618584,0.0846672 -0.0618584,0.135411 0,0.0501714 0.0136831,0.090652 0.0410493,0.122007 0.0276524,0.0310723 0.0721216,0.0661369 0.133415,0.10519l0.234048 0.14111c0.0755451,0.0467515 0.127144,0.0954992 0.15451,0.146243 0.0276524,0.0507402 0.0416217,0.1069 0.0416217,0.168758 0,0.10348 -0.0364919,0.191281 -0.109469,0.26312 -0.0729802,0.0712667 -0.189288,0.1069 -0.349215,0.1069 -0.0977852,0 -0.207822,-0.023374 -0.329833,-0.0701255l0 -0.157075zm0.428466 -1.24461l0 0m-0.0575836 1.43076l0 0m1.48689 0l0 -0.130278 0.286501 0 0 -1.03566 -0.286501 0 0 -0.130274 0.743478 0 0 0.130274 -0.286501 0 0 1.03566 0.286501 0 0 0.130278 -0.743478 0zm0.371741 -1.43076l0 0m0.0467515 1.43076l0 0m-0.559602 -1.33726l0 0m1.9547 0.041053l0.14938 0 0.518835 0.962107 0 0 0 -0.962107 0.154514 0 0 1.29621 -0.154514 0 -0.513988 -0.962107 0.000286197 0 0 0.962107 -0.154514 0 0 -1.29621zm0.411649 -0.134552l0 0m0 1.43076l0 0m-0.518553 -1.33726l0 0m2.44161 0.826131l0 -0.130278 0.304177 0 0 0.642262c-0.0758277,0.0267975 -0.160781,0.0401944 -0.255708,0.0401944 -0.164205,0 -0.29591,-0.0621446 -0.394832,-0.186151 -0.0986365,-0.124858 -0.147953,-0.292479 -0.147953,-0.503145 0,-0.211521 0.050175,-0.379142 0.150232,-0.502863 0.10035,-0.124003 0.2312,-0.186151 0.392554,-0.186151 0.0419043,0 0.0883696,0.0059884 0.139686,0.0176754 0.0510264,0.0111182 0.089797,0.0222364 0.116022,0.0333546l0 0.149377c-0.095213,-0.0467515 -0.181876,-0.0701291 -0.2597,-0.0701291 -0.112606,0 -0.202117,0.0555874 -0.268826,0.167052 -0.0664231,0.111461 -0.0994915,0.242021 -0.0994915,0.391684 0,0.156216 0.0330684,0.28849 0.0994915,0.396817 0.0661369,0.108041 0.16306,0.162201 0.29049,0.162201 0.0276524,0 0.0501714,-0.00170994 0.0675606,-0.00512981l0 -0.416772 -0.133701 0zm0.0419116 -0.91963l0 0m-0.0493201 1.43076l0 0"/>
  <path class="fil0" d="M8.6304 2.36031c0,0.0580545 -0.00435454,0.116105 -0.01306,0.174164l-1.70243 0c0.0377345,0.121913 0.1074,0.219879 0.208993,0.293895 0.101593,0.0740236 0.216253,0.111034 0.343969,0.111034 0.177073,0 0.323653,-0.0682199 0.439758,-0.204642l0.357033 0.474594c-0.223509,0.211898 -0.489103,0.317845 -0.79679,0.317845 -0.328003,0 -0.604488,-0.112479 -0.829446,-0.337444 -0.224958,-0.224958 -0.337441,-0.501442 -0.337441,-0.829446 0,-0.325105 0.113204,-0.600137 0.339622,-0.825091 0.226411,-0.224965 0.502167,-0.337444 0.827265,-0.337444 0.325105,0 0.60013,0.112479 0.825095,0.337444 0.224958,0.224954 0.337437,0.499986 0.337437,0.825091zm-0.657463 -0.265598c-0.1074,-0.206094 -0.275753,-0.30914 -0.505069,-0.30914 -0.232214,0 -0.40202,0.103045 -0.50942,0.30914l1.01449 0zm11.4033 1.36718c-0.325098,0 -0.600847,-0.112486 -0.827258,-0.337444 -0.226411,-0.224958 -0.339625,-0.49999 -0.339625,-0.825095l0 -2.28772 0.587805 0 0 1.19049 0.579078 0 0 0.500725 -0.579078 0 0 0.5965c0,0.159654 0.0565982,0.295355 0.169798,0.40711 0.113204,0.111751 0.249633,0.167632 0.40928,0.167632l0 0.587798z"/>
  <path class="fil0" d="M11.269 3.46189l-0.587798 0 0 -1.10158c0,-0.156745 -0.0566018,-0.291722 -0.170534,-0.404929 -0.113204,-0.113204 -0.248908,-0.169809 -0.406378,-0.169809 -0.160375,0 -0.297529,0.0558772 -0.410736,0.167632 -0.113932,0.111758 -0.17053,0.247455 -0.17053,0.407106l0 1.10158 -0.587805 0 0 -1.10158c0,-0.325105 0.113207,-0.600137 0.339625,-0.825091 0.226411,-0.224965 0.502167,-0.337444 0.827265,-0.337444 0.325105,0 0.600861,0.112479 0.827272,0.337444 0.226411,0.224954 0.339618,0.499986 0.339618,0.825091l0 1.10158z"/>
  <path class="fil0" d="M13.3371 2.79571c0,0.139334 -0.04644,0.265598 -0.139331,0.378805 -0.185774,0.226411 -0.44992,0.335263 -0.792436,0.326558 -0.136429,-0.00290544 -0.285197,-0.0333836 -0.446297,-0.0914345 -0.161096,-0.0580618 -0.292446,-0.130625 -0.394042,-0.217705l0.326558 -0.422347c0.156749,0.148044 0.323653,0.22206 0.500718,0.22206l0.0130636 0c0.0725636,0 0.137874,-0.0130672 0.195929,-0.0391909 0.075469,-0.0348255 0.113204,-0.0841745 0.113204,-0.148033l0 -0.0174182c-0.00870546,-0.0667636 -0.0537,-0.114656 -0.134976,-0.143682 -0.0319273,-0.00580364 -0.10014,-0.0188709 -0.204638,-0.0391872 -0.130625,-0.0261236 -0.240923,-0.0580509 -0.330905,-0.095789 -0.264153,-0.113211 -0.396223,-0.312045 -0.396223,-0.596507 0,-0.272858 0.134976,-0.4775 0.404929,-0.613921 0.119011,-0.0609599 0.24818,-0.0928872 0.387511,-0.0957963 0.145134,-0.0028982 0.296076,0.0217727 0.452822,0.0740236 0.179971,0.0609527 0.307687,0.140784 0.383156,0.239471l-0.391862 0.352682c-0.101593,-0.101593 -0.211902,-0.152394 -0.330913,-0.152394 -0.185767,0 -0.278654,0.0609599 -0.278654,0.182869l0 0.0087127c0,0.0580545 0.075469,0.1074 0.226411,0.148036 0.0116109,0.00290544 0.107396,0.0217691 0.287367,0.0566054 0.365742,0.0696618 0.548611,0.293174 0.548611,0.670527l0 0.0130564z"/>
  <path class="fil0" d="M16.4459 3.46189l-0.626261 0 -0.122637 -0.339618c-0.232214,0.272851 -0.528283,0.40928 -0.888225,0.40928 -0.325098,0 -0.600137,-0.113204 -0.825091,-0.339614 -0.224958,-0.226411 -0.337437,-0.500714 -0.337437,-0.822921 0,-0.246727 0.0696654,-0.469512 0.208993,-0.668346 0.139327,-0.198834 0.325105,-0.340343 0.55732,-0.424521 0.136425,-0.0493454 0.269953,-0.0740236 0.400578,-0.0740236 0.246727,0 0.469504,0.0703936 0.668339,0.211173 0.198834,0.140784 0.340343,0.327286 0.424517,0.559501l0.539905 1.48909zm-1.05804 -1.09287c0,-0.203185 -0.0827218,-0.361387 -0.248173,-0.474591 -0.095789,-0.06676 -0.206094,-0.10014 -0.330913,-0.10014 -0.203185,0 -0.359934,0.0812763 -0.47024,0.243829 -0.0696618,0.101593 -0.104491,0.211891 -0.104491,0.330902 0,0.200287 0.0827218,0.357033 0.24818,0.47024 0.101593,0.0696654 0.210445,0.104498 0.326551,0.104498 0.159654,0 0.296083,-0.0558772 0.40928,-0.167632 0.113207,-0.111751 0.169805,-0.247452 0.169805,-0.407106z"/>
  <path class="fil0" d="M17.9176 1.78557c-0.159647,0 -0.296076,0.0558772 -0.40928,0.167632 -0.113207,0.111758 -0.169805,0.247455 -0.169805,0.407106l0 1.10158 -0.587805 0 0 -1.10158c0,-0.325105 0.113207,-0.600137 0.339625,-0.825091 0.226411,-0.224965 0.502167,-0.337444 0.827265,-0.337444l0 0.587798z"/>
  <path class="fil0" d="M-0 0l0.857707 0 0 1.8352c0,0.228711 0.0828667,0.425419 0.248839,0.590866 0.165447,0.164915 0.363206,0.247781 0.592989,0.247781 0.234015,0 0.433882,-0.0818089 0.599318,-0.244604 0.16598,-0.163332 0.248846,-0.361086 0.248846,-0.594043l0 -1.8352 0.000463712 0 0 1.8352c0,0.441164 0.142906,0.819136 0.428625,1.13392 -0.0215155,0.0237073 -0.0438135,0.0470595 -0.0669447,0.0700494 -0.330369,0.328253 -0.732758,0.492378 -1.20714,0.492378 -0.47438,0 -0.876773,-0.164132 -1.20714,-0.492378 -0.330369,-0.328253 -0.495566,-0.729581 -0.495566,-1.20397l0 -1.8352z"/>
  <path class="fil0" d="M2.54816 0l0.857707 0 0 1.8352c0,0.228711 0.0828703,0.425419 0.248839,0.590866 0.165447,0.164915 0.363206,0.247781 0.592989,0.247781 0.234015,0 0.433882,-0.0818089 0.599322,-0.244604 0.165976,-0.163332 0.248843,-0.361086 0.248843,-0.594043l0 -1.8352 0.857703 0 0 1.8352c0,0.474373 -0.165186,0.875716 -0.495559,1.20397 -0.330369,0.328253 -0.732758,0.492378 -1.20714,0.492378 -0.47438,0 -0.876773,-0.164125 -1.20714,-0.492378 -0.330376,-0.328253 -0.495566,-0.729581 -0.495566,-1.20397l0 -1.8352z"/>
 </g>
</svg>
