<svg xmlns="http://www.w3.org/2000/svg" xml:space="preserve" width="70px" height="70px" style="shape-rendering:geometricPrecision; text-rendering:geometricPrecision; image-rendering:optimizeQuality; fill-rule:evenodd; clip-rule:evenodd"
viewBox="0 0 5.44951 5.44951">
 
 <!-- <defs>
  <style type="text/css">
   
    .fil0 {fill:#f4a137}
   
  </style>
 </defs> -->
 <style type="text/css">
 g{
 	fill:#f4a137;
 }
 g:target {
    fill:#222;
    }
 </style>
 <g id="normal">
 	
  
  <path class="fil0" d="M2.70751 0c0.324304,0 0.581241,0.565536 0.863237,0.682339 0.355441,0.0353243 0.839191,-0.125792 1.06851,0.103527 0.22932,0.22932 0.0110986,0.8109 0.127914,1.0929 0.226356,0.276299 0.682339,0.504444 0.682339,0.828748 0,0.324304 -0.565536,0.581241 -0.682339,0.863237 -0.0353243,0.355441 0.125792,0.839191 -0.103527,1.06851 -0.22932,0.22932 -0.8109,0.0110986 -1.0929,0.127914 -0.276299,0.226356 -0.504444,0.682339 -0.828748,0.682339 -0.324304,0 -0.581241,-0.565536 -0.863237,-0.682339 -0.355441,-0.0353243 -0.839191,0.125791 -1.06851,-0.103528 -0.22932,-0.22932 -0.0110986,-0.8109 -0.127914,-1.0929 -0.226356,-0.276299 -0.682339,-0.504444 -0.682339,-0.828748 0,-0.324304 0.565536,-0.581241 0.682339,-0.863237 0.0353243,-0.355441 -0.125791,-0.839191 0.103528,-1.06851 0.22932,-0.22932 0.8109,-0.0110986 1.0929,-0.127914 0.276299,-0.226356 0.504444,-0.682339 0.828748,-0.682339zm0.0172444 0.708547c1.11334,0 2.01622,0.902875 2.01622,2.01621 0,1.11334 -0.902876,2.01621 -2.01622,2.01621 -1.11333,0 -2.01621,-0.902875 -2.01621,-2.01621 0,-1.11333 0.902875,-2.01621 2.01621,-2.01621zm-1.42113 3.02924c-0.0198597,0.0124093 -0.0391507,0.0154464 -0.0578598,0.00903505 -0.0187078,-0.00641014 -0.0355716,-0.0216335 -0.0505912,-0.0456687l-0.0123535 -0.0197712 -0.0712196 0.0445036 -0.019462 -0.031145 0.190288 -0.118905 0.0342585 0.054825c0.0148523,0.0237685 0.0211424,0.0446103 0.0187976,0.0625082 -0.00231696,0.0179416 -0.0129306,0.0327903 -0.0318579,0.0446176zm-0.0946814 -0.0727278l0.0103275 0.0165267c0.0099662,0.0159496 0.0200949,0.0259303 0.0303133,0.0299229 0.0102172,0.00399376 0.0212127,0.00231332 0.0330303,-0.00507161 0.0109289,-0.00682964 0.0169947,-0.0153142 0.0182059,-0.0253374 0.00121122,-0.0100244 -0.00264674,-0.0221293 -0.0114757,-0.0362578l-0.013492 -0.0215922 -0.0669094 0.0418096zm0.0802292 0.307105l-0.078151 -0.100029 0.176815 -0.138143 0.078151 0.100029 -0.024439 0.0190934 -0.0555416 -0.0710886 -0.048136 0.0376085 0.0520583 0.0666305 -0.0241917 0.0189006 -0.0520583 -0.0666305 -0.0554846 0.0433493 0.0555404 0.0710886 -0.0245627 0.0191916zm0.169931 0.170261l-0.0305254 -0.0305254 0.0151154 -0.145733 -0.0804244 0.0804244 -0.0259691 -0.0259691 0.158663 -0.158663 0.0259679 0.0259691 -0.0768295 0.0768307 0.141065 -0.012596 0.0284498 0.028451 -0.140658 0.0125572 -0.0148547 0.149254zm0.169539 0.136322l-0.0288984 -0.0225779 0.118792 -0.152046 -0.0503245 -0.0393168c-0.0466763,0.0466363 -0.0792022,0.0778006 -0.0975876,0.0934192 -0.0183866,0.0156198 -0.0338802,0.0243893 -0.0465247,0.0262783 -0.0126445,0.00188776 -0.0245918,-0.00179561 -0.0358335,-0.0109774 -0.00590455,-0.0046121 -0.0107446,-0.00998924 -0.0144898,-0.0161727l0.0188036 -0.0240692c0.00304321,0.00563539 0.00672779,0.0101105 0.0111035,0.0135295 0.00577967,0.0045151 0.0130312,0.00459512 0.0217426,0.000166103 0.00871255,-0.00442902 0.0243675,-0.0170626 0.0469321,-0.0378607 0.0225646,-0.0207969 0.0529276,-0.0501281 0.0911374,-0.0878881l0.103291 0.0806996 -0.138143 0.176816zm0.18648 0.115957l0.0128627 -0.0649428 -0.0735571 -0.0441968 -0.050898 0.0420884 -0.0331407 -0.019913 0.188036 -0.149888 0.0341737 0.0205326 -0.0440671 0.236395 -0.0334098 -0.0200755zm0.0208526 -0.0970577l0.0134532 -0.0631799c0.000802631,-0.00428595 0.00228059,-0.0109155 0.00447873,-0.0198633 0.002243,-0.00891866 0.00394526,-0.0154149 0.00515163,-0.0194559 -0.00881075,0.00937332 -0.019365,0.0191067 -0.031636,0.0291518l-0.047491 0.0396733 0.0560435 0.0336741zm0.148632 0.176976l0.00987042 -0.198126 -0.00116636 -0.000470424c-0.00876953,0.0264589 -0.0177658,0.0509634 -0.0268918,0.0735511l-0.0408796 0.10118 -0.0308928 -0.0124808 0.0840556 -0.208044 0.0479905 0.0193892 -0.0091078 0.188827 0.000875377 0.000354031 0.126317 -0.141472 0.0481372 0.0194486 -0.0840544 0.208044 -0.0327406 -0.0132276 0.0415671 -0.102881c0.00418047,-0.0103469 0.00985951,-0.0237031 0.0171062,-0.0401 0.0072455,-0.0163957 0.0117461,-0.0262746 0.0135465,-0.0296149l-0.00116636 -0.000470424 -0.132548 0.148221 -0.0300186 -0.012128zm0.372366 0.112193l-0.0358856 -0.00828456 0.0227574 -0.0985708 -0.100765 -0.0232642 -0.0227574 0.0985721 -0.0357838 -0.00826152 0.050476 -0.218632 0.0357826 0.00826152 -0.0206465 0.0894327 0.100765 0.023263 0.0206465 -0.0894327 0.0358856 0.00828577 -0.0504748 0.218631zm0.291184 -0.0694239c-0.00508252,0.0361584 -0.0180604,0.063009 -0.0389894,0.0805432 -0.0208684,0.0174881 -0.0479105,0.0239492 -0.0810621,0.0192898 -0.0335129,-0.00470909 -0.0578986,-0.0182932 -0.0730479,-0.040739 -0.0152027,-0.0224506 -0.0202028,-0.0519867 -0.0150487,-0.0886653 0.00515527,-0.0366785 0.0181404,-0.0635812 0.0389579,-0.0807056 0.0208684,-0.0171183 0.0480912,-0.0233442 0.0816053,-0.0186339 0.0330461,0.00464483 0.0571638,0.0182447 0.0724114,0.040756 0.0152027,0.0224518 0.0202767,0.0518388 0.0151736,0.0881548zm-0.169594 -0.0238352c-0.0038422,0.0273404 -0.00125972,0.0488647 0.00780807,0.0645294 0.0090593,0.0157156 0.0244099,0.0250683 0.0460943,0.0281163 0.0215825,0.00303351 0.0388573,-0.00168165 0.051817,-0.0140909 0.012967,-0.0124626 0.0213898,-0.0324932 0.0252756,-0.0601452 0.00383614,-0.027287 0.00129003,-0.048701 -0.00762136,-0.0643438 -0.00891866,-0.0155907 -0.024165,-0.0249288 -0.0457463,-0.0279624 -0.0217899,-0.00306139 -0.0392271,0.00168286 -0.0523056,0.0141818 -0.0130337,0.0125584 -0.0214867,0.0324265 -0.0253217,0.0597148zm0.351626 0.126199l-0.126861 0.00443023 -0.00783111 -0.224246 0.126862 -0.00443023 0.00108149 0.0309947 -0.0901578 0.00314869 0.00213146 0.0610485 0.0845042 -0.00295106 0.00107179 0.0306818 -0.0845042 0.00295106 0.00245639 0.0703684 0.090159 -0.00314869 0.00108755 0.0311523zm0.304663 -0.0395738l-0.0328982 -0.0574512 -0.0845103 0.0149008 -0.0108004 0.0651574 -0.0380765 0.00671324 0.0435773 -0.236485 0.039261 -0.006923 0.121833 0.207319 -0.0383856 0.00676902zm-0.0479384 -0.0869315l-0.0312953 -0.0565079c-0.00220663,-0.00376218 -0.0054414,-0.00973463 -0.00965218,-0.0179295 -0.00415865,-0.00820333 -0.00713517,-0.0142218 -0.00887744,-0.018064 -0.000499523,0.0128554 -0.00207932,0.0271246 -0.0047491,0.0427565l-0.00981465 0.0610982 0.0643887 -0.0113532zm0.196864 -0.189939l0.00919025 0.0300599 -0.0922844 0.0282145 0.0564133 0.184518 -0.0351206 0.0107373 -0.0656024 -0.214578 0.127404 -0.0389519zm0.235761 0.146963l-0.117696 0.0475516 -0.0840544 -0.208044 0.117695 -0.0475516 0.0116175 0.0287553 -0.0836446 0.0337954 0.0228835 0.0566376 0.0783996 -0.0316748 0.0114999 0.0284643 -0.0783984 0.0316748 0.0263765 0.0652847 0.0836434 -0.0337954 0.0116782 0.028902zm0.217052 -0.116943l-0.0318955 0.0184157 -0.0505827 -0.0876104 -0.08956 0.0517079 0.0505815 0.0876104 -0.0318046 0.0183623 -0.112191 -0.194322 0.0318046 -0.0183623 0.045893 0.0794884 0.08956 -0.0517079 -0.0458918 -0.0794884 0.0318955 -0.0184144 0.112191 0.19432zm0.0248816 -0.257529c-0.0168613,0.0127051 -0.0256054,0.028611 -0.0262528,0.0478596 -0.000638952,0.0191746 0.00694118,0.039244 0.0227683,0.060247 0.0165849,0.0220081 0.0337445,0.0351193 0.0515042,0.0394489 0.0177694,0.00425443 0.0354564,-0.000217026 0.0530294,-0.0134592 0.00757286,-0.00570571 0.0143685,-0.0120079 0.0203471,-0.0188752 0.00597851,-0.00686601 0.0119012,-0.0144134 0.0177925,-0.0225258l0.0189176 0.0251046c-0.0100535,0.0159071 -0.0239359,0.0305654 -0.0417586,0.0439956 -0.0262346,0.0197687 -0.0523917,0.0270154 -0.0784299,0.021711 -0.0260394,-0.00530561 -0.0501778,-0.022801 -0.0724696,-0.052382 -0.0140291,-0.0186193 -0.0229368,-0.0374897 -0.0266469,-0.0566037 -0.00371126,-0.0191128 -0.00187685,-0.0372241 0.00543898,-0.0544128 0.0072746,-0.0171596 0.0196572,-0.0323271 0.0370629,-0.0454432 0.0182847,-0.0137781 0.0380874,-0.0226664 0.0594117,-0.0266651l0.00787961 0.0323053c-0.00824334,0.00168528 -0.0165364,0.00399861 -0.0249119,0.00689996 -0.00834518,0.00294136 -0.0162757,0.00721398 -0.0236825,0.0127948zm0.272132 0.0237079l-0.0268202 0.0250101 -0.13159 -0.141114 -0.0482767 0.0450189 -0.0214382 -0.022989 0.123375 -0.115049 0.021437 0.022989 -0.0482767 0.0450201 0.13159 0.141114zm-0.0833827 -0.231646l0.0437191 -0.050293c0.0202792,-0.0233284 0.0383214,-0.0372156 0.0541606,-0.0417017 0.0157665,-0.00448237 0.0310577,-0.000352818 0.0457269,0.0123983 0.00988376,0.00859252 0.0158744,0.0183126 0.0180034,0.0291178 0.00216419,0.0107676 -7.63833e-005,0.0217304 -0.00669385,0.0327757l0.00114696 0.00099662c0.0125596,-0.0099759 0.0245833,-0.0148644 0.0360323,-0.0147008 0.011483,0.000126093 0.0228604,0.00508616 0.0341676,0.0149166 0.0151833,0.0131973 0.0224834,0.0289165 0.0218517,0.0469697 -0.000626828,0.0181295 -0.0091369,0.036624 -0.0255993,0.0555622l-0.0531713 0.0611673 -0.169344 -0.147209zm0.0940376 0.0330849l0.0231308 -0.0266093c0.0100717,-0.011586 0.0156077,-0.0216286 0.0165703,-0.0301617 0.000962672,-0.00853432 -0.00294258,-0.0165788 -0.0117594,-0.0242438 -0.0079475,-0.00690845 -0.0162284,-0.0090399 -0.02477,-0.00640044 -0.00853796,0.00271343 -0.0182568,0.0103008 -0.0291178,0.022795l-0.0208284 0.0239601 0.0467745 0.0406602zm0.0224979 0.0195566l0.0536138 0.0466059 0.0255714 -0.0294161c0.0100705,-0.011586 0.0154525,-0.0222482 0.0161448,-0.0319888 0.000688662,-0.00981465 -0.00376703,-0.0188242 -0.0133356,-0.0271415 -0.00881682,-0.007665 -0.0179525,-0.0103299 -0.0274083,-0.00799842 -0.00949335,0.00229756 -0.0195626,0.00964976 -0.0302175,0.0219062l-0.0243687 0.0280327zm0.209894 -0.309157c0.0306236,0.0198875 0.0494734,0.0429977 0.0565188,0.0693754 0.0070309,0.0263037 0.00145856,0.0535423 -0.016774,0.0816198 -0.0184326,0.0283831 -0.0410494,0.0447424 -0.0677944,0.048986 -0.0267717,0.0042908 -0.0556543,-0.00365912 -0.0867181,-0.0238328 -0.0310638,-0.0201725 -0.0499571,-0.0433106 -0.0566788,-0.0694142 -0.00669506,-0.0261486 -0.000834154,-0.0534513 0.0175985,-0.0818356 0.0181756,-0.0279866 0.0406953,-0.0440974 0.067541,-0.0484016 0.0267717,-0.0042908 0.0555501,0.00353061 0.0863071,0.023503zm-0.0932749 0.143631c0.0231551,0.0150366 0.0437543,0.0217935 0.0617832,0.0201955 0.0180713,-0.0015701 0.0330352,-0.011529 0.0449619,-0.0298938 0.0118709,-0.0182786 0.0148972,-0.035928 0.0091272,-0.0529167 -0.00581362,-0.0170201 -0.0204077,-0.0331188 -0.0438258,-0.0483264 -0.0231114,-0.0150087 -0.0435943,-0.0217511 -0.0615371,-0.0202852 -0.0178992,0.00149372 -0.032806,0.0113654 -0.0446758,0.0296428 -0.0119837,0.0184532 -0.0150536,0.0362627 -0.00925208,0.053398 0.00587303,0.0171208 0.020307,0.033177 0.0434185,0.0481857zm-3.00287 -1.20371l-0.00200294 0.0573517 -0.194211 0.0480027c-0.00843611,0.00204053 -0.0206562,0.0045539 -0.036584,0.00753891 -0.015929,0.00298622 -0.0269924,0.00470909 -0.0331904,0.0052462 0.00935877,0.00175803 0.0214661,0.0045927 0.0364033,0.00843005 0.0148632,0.00383493 0.0259049,0.00700787 0.0332049,0.00944849l0.189534 0.0600458 -0.00200294 0.057353 -0.162895 0.0359826 -0.162396 0.0367549 0.00187927 -0.0538139 0.189469 -0.0395023c0.0303569,-0.00617492 0.0571796,-0.0103615 0.0803177,-0.0126433 -0.0124359,-0.00209266 -0.0262746,-0.00498674 -0.0415913,-0.00876104 -0.0153155,-0.00377552 -0.0277065,-0.0071473 -0.0371744,-0.0101153l-0.186477 -0.059111 0.0018235 -0.0522341 0.191019 -0.0472085c0.0177161,-0.0045054 0.0440974,-0.00900959 0.0790713,-0.0135914 -0.0209218,-0.00291469 -0.0474571,-0.00911629 -0.0796787,-0.0186072l-0.185807 -0.0524547 0.00186351 -0.0533628 0.319425 0.0952512zm0.0639753 -0.303966l-0.0410481 0.1778 -0.314288 -0.0725581 0.0410481 -0.177801 0.0434427 0.0100293 -0.0291724 0.126361 0.0855614 0.019753 0.0273428 -0.118434 0.0430002 0.00992741 -0.0273428 0.118434 0.098623 0.0227695 0.0291724 -0.126361 0.0436609 0.0100802zm0.138867 -0.311426l-0.0273392 0.0586296 -0.29998 0.0351169 -0.00073231 0.00156889 0.0134132 0.00509222c0.0257363,0.00967279 0.0488101,0.0193529 0.0692869,0.028902l0.152002 0.0708789 -0.0202416 0.04341 -0.292333 -0.136318 0.027053 -0.0580162 0.298593 -0.0353473 0.000540745 -0.0011603c-0.0031984,-0.00115909 -0.0145783,-0.00580149 -0.0341761,-0.0140254 -0.0196984,-0.00818878 -0.0349047,-0.0147808 -0.0456881,-0.01981l-0.153164 -0.071422 0.0204331 -0.0438173 0.292333 0.136318zm0.0828432 -0.271609c0.0235042,0.0164576 0.0359875,0.0378873 0.0374339,0.0641814 0.00150827,0.0263389 -0.0081815,0.0544904 -0.0291324,0.0844108 -0.020906,0.0298574 -0.0427007,0.0510047 -0.0653017,0.0635873l-0.0408396 -0.0285965c0.0140982,-0.00805541 0.0275259,-0.0177767 0.0402989,-0.0290584 0.0126675,-0.0112647 0.0231878,-0.0227453 0.0313523,-0.0344052 0.0120092,-0.0171499 0.0175512,-0.0320228 0.0167752,-0.0447012 -0.000837792,-0.0127233 -0.00668536,-0.0228859 -0.0176652,-0.0305739 -0.00987163,-0.00691208 -0.0208963,-0.00902293 -0.0329709,-0.00635315 -0.0121352,0.00262613 -0.0310771,0.0123462 -0.0568268,0.0291615 -0.0265935,0.0172347 -0.0496819,0.0264432 -0.069116,0.0275441 -0.0194341,0.0011021 -0.0379419,-0.00450177 -0.0555246,-0.0168128 -0.0220845,-0.0154646 -0.0339348,-0.0354382 -0.0356092,-0.0599621 -0.00167437,-0.0245251 0.00665868,-0.0499498 0.0251459,-0.076353 0.01771,-0.0252926 0.0408869,-0.0465744 0.0695719,-0.0639086l0.0255933 0.0384232c-0.026328,0.0165934 -0.0459512,0.0341118 -0.0588236,0.0524947 -0.00980495,0.0140036 -0.0142121,0.0267317 -0.0131598,0.0382268 0.000992983,0.0114502 0.00652653,0.0207496 0.0165194,0.0277465 0.00684782,0.00479517 0.0137454,0.00741767 0.0206671,0.00803601 0.0069036,0.000511647 0.0147953,-0.00104148 0.0238401,-0.00463635 0.00894048,-0.00357668 0.0230593,-0.0115278 0.0422048,-0.0237722 0.0216444,-0.0137126 0.0391483,-0.0226919 0.0524268,-0.0268178 0.013321,-0.00418775 0.0258394,-0.00525954 0.0376412,-0.00333904 0.0117594,0.00198233 0.0235927,0.00714123 0.0354988,0.0154779zm0.262685 -0.131408l-0.0846436 -0.0435058 -0.0902184 0.0841308 0.0379916 0.0870091 -0.040648 0.0379043 -0.132616 -0.319225 0.041915 -0.0390864 0.309197 0.154561 -0.0409778 0.0382123zm-0.125854 -0.0672707l-0.0819738 -0.0436258c-0.00560387,-0.00280678 -0.0141794,-0.00747465 -0.0256733,-0.0140582 -0.0114369,-0.00663322 -0.0197372,-0.0115593 -0.0248452,-0.0148281 0.00946304,0.0158889 0.0187297,0.0343301 0.027749,0.0552664l0.0360056 0.0813446 0.0687377 -0.0640989zm0.159701 -0.16737l0.0310383 -0.0193953c0.0208211,-0.0130106 0.0334583,-0.0263244 0.0380183,-0.0399194 0.0044957,-0.013555 0.00207811,-0.0279393 -0.0074601,-0.0432039 -0.00965825,-0.0154561 -0.021648,-0.0234157 -0.0359923,-0.023777 -0.0143213,-0.00046315 -0.0315972,0.0057142 -0.0519067,0.0184047l-0.02957 0.0184775 0.0558726 0.0894133zm0.0231466 0.0370423l0.068283 0.109275 -0.0447715 0.0279757 -0.170928 -0.273541 0.0772793 -0.04829c0.0353182,-0.0220687 0.0655502,-0.031813 0.0907991,-0.0292075 0.0252501,0.00260431 0.0461719,0.0173269 0.0628538,0.0440235 0.0212709,0.0340403 0.0187454,0.0693645 -0.00768198,0.105949l0.152946 0.0728006 -0.0509028 0.0318082 -0.133746 -0.0683703 -0.0441314 0.0275768zm0.374836 -0.0535447l-0.0492151 0.0188921 -0.0994002 -0.258945 -0.0885889 0.0340063 -0.0161933 -0.0421854 0.226393 -0.0869036 0.0161933 0.0421842 -0.0885889 0.0340063 0.0994002 0.258945zm0.447707 -0.105428l-0.0429068 -0.0849479 -0.122438 0.015033 -0.0204077 0.0927221 -0.0551645 0.00677387 0.080348 -0.336208 0.0568837 -0.00698483 0.159297 0.306783 -0.0556119 0.00682843zm-0.0622779 -0.128398l-0.0406759 -0.0834773c-0.00288317,-0.00556386 -0.00707697,-0.0143819 -0.0125063,-0.0264638 -0.00535411,-0.0120892 -0.00917327,-0.0209521 -0.0113848,-0.0265996 -0.00168407,0.0184169 -0.00502554,0.0387833 -0.0100353,0.0610218l-0.0186836 0.0869727 0.0932858 -0.0114539zm0.435774 -0.0254199c-0.00371368,0.0531143 -0.0212818,0.0927281 -0.0527712,0.118762 -0.0314893,0.0260322 -0.0749187,0.0371138 -0.130362,0.0332364l-0.0900765 -0.00629859 0.0224991 -0.321769 0.0995432 0.00696058c0.0511623,0.00357789 0.0900935,0.0201167 0.116557,0.0497486 0.026545,0.0295628 0.0381092,0.0693257 0.0346101,0.11936zm-0.0555695 -0.00207326c0.00538927,-0.0770805 -0.0279818,-0.118067 -0.100028,-0.123104l-0.0455269 -0.00318385 -0.0163266 0.233494 0.0374121 0.00261522c0.0774551,0.00541715 0.118969,-0.0311632 0.12447,-0.109821zm0.373581 -0.0802619l0.0525566 0.0150705 -0.197497 0.278923 -0.0534259 -0.0153203 -0.0192474 -0.341072 0.0521953 0.0149663 0.00936847 0.211321c0.000765046,0.0101687 0.00100147,0.0230071 0.000665626,0.0386584 -0.000386766,0.0155579 -0.000945698,0.02707 -0.00187321,0.034404 0.004954,-0.0101747 0.0113472,-0.0218165 0.0191601,-0.0348538 0.00790507,-0.0130882 0.0140072,-0.0226204 0.0183478,-0.0287407l0.11975 -0.173356zm0.166553 0.420522l-0.166701 -0.0742203 0.131195 -0.294667 0.166701 0.0742203 -0.0181344 0.0407293 -0.118473 -0.0527469 -0.0357159 0.0802195 0.111042 0.0494394 -0.0179501 0.0403158 -0.111042 -0.0494382 -0.0411682 0.0924662 0.118472 0.0527481 -0.0182253 0.0409342zm0.20563 -0.0742458l0.0299811 0.0209933c0.0201118,0.0140824 0.0373054,0.0205132 0.0516012,0.0193989 0.014234,-0.00115787 0.0265305,-0.00900474 0.0368543,-0.0237479 0.0104536,-0.0149299 0.0130955,-0.0290766 0.00782262,-0.0424218 -0.00516739,-0.0133634 -0.0176045,-0.026853 -0.0372217,-0.0405886l-0.0285625 -0.0200003 -0.060475 0.0863665zm-0.0250525 0.0357801l-0.0739099 0.105553 -0.0432451 -0.0302805 0.18501 -0.264222 0.0746447 0.052268c0.0341155,0.0238874 0.0548978,0.0479093 0.0623652,0.0721689 0.00746859,0.0242608 0.00209145,0.0492721 -0.0159653,0.0750581 -0.0230229,0.0328812 -0.0565261,0.0443581 -0.100527,0.0343264l-0.00725399 0.169233 -0.0491678 -0.0344271 0.0106755 -0.149829 -0.0426267 -0.0298489zm0.190698 0.323091l-0.0385542 -0.0359523 0.189165 -0.202855 -0.0693997 -0.0647161 0.0308176 -0.0330473 0.177352 0.165384 -0.0308176 0.0330473 -0.0693985 -0.0647161 -0.189165 0.202855zm0.0930809 0.108778l0.250672 -0.20299 0.0332243 0.0410275 -0.250673 0.20299 -0.0332231 -0.0410275zm0.254207 0.226188c-0.0245942,0.0147784 -0.0492491,0.0174675 -0.073859,0.00809421 -0.0246742,-0.00933574 -0.0464508,-0.0296392 -0.0652629,-0.0609478 -0.0187733,-0.0312432 -0.0292269,-0.0597548 -0.0315293,-0.085519l0.0427346 -0.0256769c0.00162466,0.0161557 0.00504372,0.0323756 0.0101553,0.0486331 0.00513829,0.0161545 0.0113472,0.0304345 0.0186775,0.0426352 0.0107834,0.0179464 0.0221172,0.0290584 0.0340148,0.0335068 0.0119643,0.00441083 0.0236255,0.00320082 0.0351157,-0.00370277 0.0103287,-0.00620645 0.0167413,-0.0154185 0.0192146,-0.0275356 0.00253641,-0.0121546 0.00136035,-0.0334122 -0.00352697,-0.0637752 -0.00492854,-0.0313038 -0.00395011,-0.0561417 0.00294864,-0.074344 0.00689875,-0.0182011 0.0195456,-0.0328303 0.0379431,-0.0438852 0.0231102,-0.013886 0.0461767,-0.0165873 0.0692615,-0.00814149 0.0230859,0.0084446 0.0429238,0.0263983 0.0595244,0.0540273 0.0159035,0.0264662 0.0259182,0.0562957 0.0300865,0.0895503l-0.0455111 0.0077523c-0.00444963,-0.0308007 -0.0124723,-0.055852 -0.0240304,-0.0750896 -0.0088059,-0.0146535 -0.01864,-0.0238558 -0.0295688,-0.0275695 -0.0108658,-0.00375006 -0.0216104,-0.00247821 -0.0320677,0.00380462 -0.00716548,0.00430656 -0.0123668,0.00954064 -0.0157471,0.0156125 -0.003276,0.00609854 -0.00506676,0.0139406 -0.0054608,0.0236655 -0.00036858,0.00962187 0.00115181,0.0257533 0.00455026,0.0482245 0.00372338,0.0253508 0.0048073,0.0449934 0.00317536,0.0588018 -0.00159193,0.0138727 -0.00570571,0.0257448 -0.0122601,0.035745 -0.00659321,0.00993711 -0.0161193,0.0186484 -0.0285783,0.026134zm-0.0490454 0.104957l0.294669 -0.131195 0.0214734 0.0482294 -0.294669 0.131194 -0.0214734 -0.0482282zm0.118325 0.386484l-0.0145528 -0.0630332 0.214768 -0.212359 -0.000390404 -0.00168771 -0.0137041 0.00424594c-0.0262358,0.00822151 -0.0503778,0.0148002 -0.072392,0.0198827l-0.163418 0.0377273 -0.0107737 -0.046669 0.314287 -0.0725593 0.0144001 0.0623736 -0.213533 0.211686 0.000287347 0.00124759c0.00323477,-0.00105603 0.0150608,-0.00440477 0.0355667,-0.00998803 0.0205641,-0.00567661 0.0366058,-0.00984254 0.0481991,-0.0125196l0.164667 -0.0380159 0.0108755 0.0471091 -0.314287 0.0725593zm0.19366 0.208343l0.0041441 0.118692 -0.161817 0.00565115c-0.00700059,-0.0191989 -0.0121692,-0.0377055 -0.0154258,-0.0554519 -0.00325781,-0.0177452 -0.00528742,-0.0370411 -0.00601003,-0.0577385 -0.00170589,-0.0488477 0.0114308,-0.0869836 0.0394089,-0.114411 0.0279781,-0.0275016 0.0682358,-0.0420945 0.120921,-0.043935 0.051857,-0.00181016 0.0930203,0.0116721 0.123338,0.0404541 0.0303969,0.0288559 0.046509,0.0694373 0.0483361,0.121745 0.00117485,0.0336438 -0.00418411,0.065783 -0.0160781,0.09634l-0.0445266 -0.0169838c0.0111301,-0.0265365 0.0162381,-0.0529397 0.0153227,-0.0791307 -0.00120031,-0.0343955 -0.0129124,-0.0611903 -0.0352879,-0.0804535 -0.0222979,-0.0191916 -0.0521504,-0.0281709 -0.0896316,-0.0268627 -0.0394405,0.00137732 -0.0690784,0.0114563 -0.0889235,0.0301581 -0.0199191,0.0187066 -0.0292512,0.0449546 -0.0280678,0.0788239 0.000594092,0.0170092 0.003413,0.0351472 0.00830517,0.0544189l0.0831681 -0.00290378 -0.00233393 -0.0668366 0.0451583 -0.00157616zm-2.8523 -0.589239l0.320921 0 0 0.90972c0,0.0855784 0.0310031,0.159177 0.0931064,0.22108 0.0619032,0.0617068 0.135897,0.0927099 0.221872,0.0927099 0.0875607,0 0.162342,-0.0306079 0.224243,-0.0915218 0.0621057,-0.0611127 0.0931088,-0.135104 0.0931088,-0.222268l0 -0.90972 0.000173378 0 0.32092 0 0 0.90972c0,0.0855784 0.0310044,0.159177 0.0931064,0.22108 0.0619032,0.0617068 0.135897,0.0927099 0.221873,0.0927099 0.0875595,0 0.162341,-0.0306079 0.224243,-0.0915218 0.0621045,-0.0611127 0.0931088,-0.135104 0.0931088,-0.222268l0 -0.90972 0.320918 0 0 0.90972c0,0.177495 -0.0618062,0.327659 -0.185419,0.450478 -0.123611,0.12282 -0.27417,0.18423 -0.451665,0.18423 -0.177494,0 -0.328053,-0.061411 -0.451664,-0.18423 -0.00865556,-0.008601 -0.0169983,-0.017339 -0.0250477,-0.026208 -0.00804935,0.00886895 -0.0163921,0.017607 -0.0250477,0.026208 -0.12361,0.12282 -0.27417,0.18423 -0.451664,0.18423 -0.177494,0 -0.328054,-0.061411 -0.451664,-0.18423 -0.123614,-0.12282 -0.185422,-0.272981 -0.185422,-0.450478l0 -0.90972zm0.953425 0.90972c0,0.00267827 1.21243e-005,0.00535168 4.36476e-005,0.00801661 -3.15233e-005,-0.00266493 -4.36476e-005,-0.00533834 -4.36476e-005,-0.00801661zm8.48703e-005 0.0107676c2.54611e-005,0.00173742 4.84973e-005,0.00347726 8.60828e-005,0.00520983 -3.75854e-005,-0.00173257 -6.06217e-005,-0.00347241 -8.60828e-005,-0.00520983zm0.000173378 0.00861555c4.00103e-005,0.00150463 7.63833e-005,0.00300805 0.000124881,0.00450783 -4.84973e-005,-0.00149978 -8.48703e-005,-0.00300441 -0.000124881,-0.00450783zm0.000255823 0.00814877c5.33471e-005,0.00141733 0.000104269,0.00283588 0.000163679,0.00425079 -5.94092e-005,-0.0014137 -0.000110331,-0.00283346 -0.000163679,-0.00425079zm0.000333419 0.00789779c6.91087e-005,0.00142703 0.000137005,0.00285286 0.000213388,0.00427504 -7.63833e-005,-0.00142218 -0.00014428,-0.00284801 -0.000213388,-0.00427504zm0.000425564 0.00797296c8.00206e-005,0.00135308 0.000162466,0.00270615 0.000249761,0.0040568 -8.72952e-005,-0.00135065 -0.000169741,-0.00270373 -0.000249761,-0.0040568zm0.00108513 0.0155046c0.000117606,0.00145007 0.000241274,0.0028965 0.000367367,0.00434172 -0.000126093,-0.00144522 -0.000249761,-0.00289287 -0.000367367,-0.00434172zm0.000674113 0.00777412c0.000127306,0.00137732 0.000263098,0.00275101 0.000397678,0.0041247 -0.00013458,-0.00137369 -0.000270373,-0.00274859 -0.000397678,-0.0041247zm0.000773533 0.00786991c0.000135793,0.00130822 0.000281285,0.00261279 0.000425564,0.00391859 -0.00014428,-0.00130579 -0.000289772,-0.00261037 -0.000425564,-0.00391859zm0.000835367 0.00759226c0.000160041,0.00137247 0.000328569,0.00274252 0.000494673,0.00411257 -0.000167316,-0.00137005 -0.000335844,-0.0027401 -0.000494673,-0.00411257zm0.000928724 0.00765167c0.00018429,0.0014428 0.000380704,0.00287953 0.000572269,0.00431869 -0.000192777,-0.00143916 -0.000387979,-0.00287589 -0.000572269,-0.00431869zm0.00100511 0.00755346c0.000220663,0.00158586 0.000455875,0.00316324 0.00068745,0.00474425 -0.000231575,-0.00158101 -0.000466787,-0.00315839 -0.00068745,-0.00474425zm0.00292803 0.0189261c0.000192777,0.00113969 0.000380704,0.00228059 0.000579543,0.00341785 -0.000198839,-0.00113726 -0.000386766,-0.00227816 -0.000579543,-0.00341785zm0.00132398 0.00754012c0.000195202,0.00107422 0.000386766,0.00214964 0.000586818,0.00322144 -0.000200052,-0.00107058 -0.000391616,-0.00214722 -0.000586818,-0.00322144zm0.00140036 0.00745647c0.000204901,0.0010536 0.000406165,0.002106 0.000615916,0.00315839 -0.000209751,-0.00105118 -0.000411015,-0.00210478 -0.000615916,-0.00315839zm0.00147068 0.00734613c0.000214601,0.00104027 0.000427989,0.00207932 0.000648652,0.00311717 -0.000220663,-0.00103663 -0.000434051,-0.0020769 -0.000648652,-0.00311717zm0.161947 -2.53058c1.16856,0 2.11622,0.947657 2.11622,2.11621 0,1.16856 -0.947657,2.11622 -2.11622,2.11622 -1.16855,0 -2.11621,-0.947657 -2.11621,-2.11622 0,-1.16855 0.947656,-2.11621 2.11621,-2.11621z"/>
 </g>
</svg>
